<?xml version="1.0" encoding="utf-8"?>
<!-- Generator: Adobe Illustrator 25.2.1, SVG Export Plug-In . SVG Version: 6.00 Build 0)  -->
<svg version="1.1" id="Ebene_1" xmlns="http://www.w3.org/2000/svg" xmlns:xlink="http://www.w3.org/1999/xlink" x="0px" y="0px"
	 viewBox="0 0 14 14" style="enable-background:new 0 0 14 14;" xml:space="preserve">
<g>
	<path d="M13.9,3.5c-0.1-0.5-0.3-1-0.6-1.4c-0.9-1-2.4-1.6-4.9-1.7C8.3,0.2,8.1,0,7.8,0H6.2C5.9,0,5.7,0.2,5.6,0.4
		c-2.5,0.2-4,0.7-4.9,1.7C0.4,2.5,0.2,3,0.1,3.5c-0.4,2.1,1,4.2,3.2,4.9L6,9.2C5.7,9.3,5.4,9.5,5.2,9.7c-1,1-1,2.6,0,3.6
		s2.6,1,3.6,0s1-2.6,0-3.6C8.6,9.5,8.3,9.3,8,9.2l2.7-0.8C12.9,7.7,14.4,5.6,13.9,3.5z M7.8,11.5c-0.4,0.4-1.1,0.4-1.6,0
		c-0.4-0.4-0.4-1.1,0-1.6c0.4-0.4,1.1-0.4,1.6,0S8.2,11,7.8,11.5z M10.5,7.7L7,8.8L3.5,7.7c-1.9-0.6-3.1-2.3-2.7-4
		c0.1-0.4,0.2-0.8,0.5-1C2,1.8,3.5,1.3,5.6,1.1c0,0.3,0.3,0.5,0.6,0.5h1.6c0.3,0,0.6-0.2,0.6-0.5c2.2,0.1,3.6,0.6,4.4,1.5
		c0.2,0.2,0.4,0.6,0.5,1C13.6,5.3,12.4,7.1,10.5,7.7z"/>
</g>
</svg>
