<?xml version="1.0" encoding="utf-8"?>
<!-- Generator: Adobe Illustrator 25.2.1, SVG Export Plug-In . SVG Version: 6.00 Build 0)  -->
<svg version="1.1" id="Ebene_1" xmlns="http://www.w3.org/2000/svg" xmlns:xlink="http://www.w3.org/1999/xlink" x="0px" y="0px"
	 viewBox="0 0 14 14" style="enable-background:new 0 0 14 14;" xml:space="preserve">
<g>
	<g>
		<path d="M11.1,0.2L9.7,0C9.4,0,9.1,0.2,9,0.4C8.9,1,8.4,1.9,7,1.9C5.6,1.9,5.1,1,5,0.4C4.9,0.2,4.6,0,4.3,0L2.9,0.2
			c-0.3,0-0.5,0.3-0.5,0.5C2.2,3.2,0.9,4.2,0.3,4.5C0.1,4.6,0,4.8,0,5v2.4C0,7.7,0.2,8,0.4,8.1c2.4,1.5,4.7,0.7,5.8,0.2
			c0.5-0.2,1.1-0.2,1.5,0c1.1,0.6,3.4,1.3,5.8-0.2C13.8,8,14,7.7,14,7.4V5c0-0.2-0.1-0.4-0.3-0.5c-0.6-0.3-1.9-1.3-2.1-3.8
			C11.6,0.4,11.4,0.2,11.1,0.2z"/>
		<path d="M11.4,10.4l-0.8,0c-1.5,0-2.7-0.5-3.5-0.8c0,0-0.1,0-0.1,0s-0.1,0-0.1,0c-0.8,0.4-2,0.8-3.5,0.8c-0.8,0-1.7-0.2-2.5-0.4
			c-0.2-0.1-0.4,0.1-0.4,0.3l0.8,3.3C1.4,13.8,1.6,14,1.9,14l4.7-1.3c0.2-0.1,0.4-0.1,0.6,0L12,14c0.3,0,0.5-0.2,0.6-0.4l0.8-3.2
			c0.1-0.2-0.2-0.4-0.4-0.3C12.5,10.2,11.9,10.4,11.4,10.4z"/>
	</g>
</g>
</svg>
