<?xml version="1.0" encoding="utf-8"?>
<!-- Generator: Adobe Illustrator 25.2.1, SVG Export Plug-In . SVG Version: 6.00 Build 0)  -->
<svg version="1.1" id="Ebene_1" xmlns="http://www.w3.org/2000/svg" xmlns:xlink="http://www.w3.org/1999/xlink" x="0px" y="0px"
	 viewBox="0 0 14 14" style="enable-background:new 0 0 14 14;" xml:space="preserve">
<g>
	<path d="M4.3,0.7c0.1-0.1,0.1-0.3,0-0.4v0C3.1,1.9,0.1,6.5,0,12.6C0,14,4.2,14,4.2,14C1.8,8,3.4,2.9,4.3,0.7z"/>
	<path d="M6.1,1.4H5.5c-0.1,0-0.1,0-0.1-0.1L4.9,0.2C4.9,0.1,5,0,5.1,0h0.8C5.9,0,6,0,6,0.1l0.2,1.1C6.2,1.3,6.2,1.4,6.1,1.4z"/>
	<path d="M7.9,1.4h0.6c0.1,0,0.1,0,0.1-0.1l0.4-1.1C9.1,0.1,9,0,8.9,0L8.1,0C8.1,0,8,0,8,0.1L7.8,1.2C7.8,1.3,7.8,1.4,7.9,1.4z"/>
	<path d="M9.6,0.3L9.6,0.3c-0.1,0.1-0.1,0.3,0,0.4C10.6,2.9,12.2,8,9.8,14c0,0,4.2,0,4.2-1.4C13.9,6.5,10.9,1.9,9.6,0.3z"/>
	<path d="M9.6,10.7c-0.9-0.1-1.8-0.2-2.6-0.2c-0.8,0-1.7,0.1-2.6,0.2C3.6,7.1,4.4,4,5,2.3c0.6,0.3,1.3,0.4,2,0.4s1.4-0.1,2-0.4
		C9.7,4,10.4,7.1,9.6,10.7z"/>
</g>
</svg>
