<?xml version="1.0" encoding="utf-8"?>
<!-- Generator: Adobe Illustrator 25.2.1, SVG Export Plug-In . SVG Version: 6.00 Build 0)  -->
<svg version="1.1" id="Ebene_1" xmlns="http://www.w3.org/2000/svg" xmlns:xlink="http://www.w3.org/1999/xlink" x="0px" y="0px"
	 viewBox="0 0 14 14" style="enable-background:new 0 0 14 14;" xml:space="preserve">
<g>
	<g>
		<g>
			<g>
				<rect y="4.9" width="1.4" height="4.2"/>
			</g>
			<g>
				<path d="M9.8,4.3c0-0.5-0.4-0.8-0.8-0.8H3.7c-0.5,0-0.8,0.4-0.8,0.8v5.3c0,0.5,0.4,0.8,0.8,0.8H9c0.5,0,0.8-0.4,0.8-0.8V9.1H14
					V4.9H9.8V4.3z M8.4,8.5c0,0.3-0.3,0.6-0.6,0.6H4.8c-0.3,0-0.6-0.3-0.6-0.6V7.8h1.4c0.4,0,0.7-0.3,0.7-0.7v0
					c0-0.4-0.3-0.7-0.7-0.7H4.2V5.5c0-0.3,0.3-0.6,0.6-0.6h3.1c0.3,0,0.6,0.3,0.6,0.6V8.5z"/>
			</g>
		</g>
	</g>
</g>
</svg>
