<?xml version="1.0" encoding="utf-8"?>
<!-- Generator: Adobe Illustrator 25.2.1, SVG Export Plug-In . SVG Version: 6.00 Build 0)  -->
<svg version="1.1" id="Ebene_1" xmlns="http://www.w3.org/2000/svg" xmlns:xlink="http://www.w3.org/1999/xlink" x="0px" y="0px"
	 viewBox="0 0 14 14" style="enable-background:new 0 0 14 14;" xml:space="preserve">
<style type="text/css">
	.st0{fill:#1D1D1B;}
</style>
<g>
	<path class="st0" d="M13.3,12.6l0-1.7l-0.7-4.6H9.8H7.7L6.6,8.6C6.4,8.8,6.1,9,5.8,9.1l-4.1,1.2c-0.6,0.2-1,0.7-1,1.3v0.9H0.4
		C0.2,12.6,0,12.8,0,13v0.6C0,13.8,0.2,14,0.4,14h6.3C6.9,14,7,13.9,7,13.7v-0.1c0-0.2,0.1-0.3,0.3-0.3h1.5c0.2,0,0.3,0.1,0.3,0.3
		v0.1c0,0.2,0.1,0.3,0.3,0.3h3.9c0.2,0,0.3-0.2,0.3-0.4V13C13.6,12.8,13.5,12.6,13.3,12.6z"/>
	<path class="st0" d="M6.8,4.9h6.4c0.3,0,0.5-0.3,0.5-0.7L14,0.7C14,0.3,13.8,0,13.5,0H6.7C6.4,0,6.2,0.3,6.2,0.7l0.1,3.5
		C6.3,4.6,6.5,4.9,6.8,4.9z"/>
</g>
</svg>
