<?xml version="1.0" encoding="utf-8"?>
<!-- Generator: Adobe Illustrator 25.2.1, SVG Export Plug-In . SVG Version: 6.00 Build 0)  -->
<svg version="1.1" id="Ebene_1" xmlns="http://www.w3.org/2000/svg" xmlns:xlink="http://www.w3.org/1999/xlink" x="0px" y="0px"
	 viewBox="0 0 14 14" style="enable-background:new 0 0 14 14;" xml:space="preserve">
<path d="M13.8,11.3l-3.3-6.8c-0.1-0.2-0.2-0.3-0.3-0.5L9.3,3.5c0,0-0.1-0.1-0.1-0.1C9.2,3,8.7,2,8.6,1.8l-0.2-1
	c0-0.2-0.2-0.4-0.4-0.4L7.3,0.1C7.1,0,6.8,0,6.5,0.1L5.9,0.4C5.7,0.5,5.5,0.6,5.5,0.8l-0.2,1C5.2,2,4.6,3,4.6,3.4c0,0-0.1,0-0.1,0.1
	L3.7,4.1C3.5,4.2,3.4,4.4,3.4,4.6l-3.1,6.8c-0.3,0.7,0.1,1.5,0.8,1.8L3.9,14C4,14,4.2,14,4.3,13.8l0.6-1.5c0.6-0.1,1.3-0.2,2.2-0.2
	c0.9,0,1.6,0.1,2.2,0.2l0.5,1.5c0,0.2,0.2,0.2,0.4,0.2l3-0.8C13.7,12.9,14.1,12.1,13.8,11.3z M6.1,1.7c0-0.2,0.2-0.4,0.4-0.5
	c0,0,0.3,0.1,0.5,0.1c0.2,0,0.5-0.1,0.5-0.1c0.2,0.1,0.3,0.2,0.4,0.5l0.1,1.1c0,0.1,0,0.1,0,0.2L7.8,3.3c0,0.2-0.2,0.3-0.3,0.4
	L7.3,3.8c0,0-0.1,0-0.1,0c-0.2,0-0.4,0-0.6,0c0,0-0.1,0-0.1,0L6.4,3.7C6.2,3.6,6.1,3.5,6,3.3L6,3c0-0.1,0-0.1,0-0.2L6.1,1.7z
	 M7,11.4c-0.7,0-1.3,0.1-1.9,0.2l1.7-4.7c0-0.2,0.3-0.2,0.3,0l1.7,4.7C8.3,11.4,7.7,11.4,7,11.4z"/>
</svg>
