<?xml version="1.0" encoding="utf-8"?>
<!-- Generator: Adobe Illustrator 25.2.1, SVG Export Plug-In . SVG Version: 6.00 Build 0)  -->
<svg version="1.1" id="Ebene_1" xmlns="http://www.w3.org/2000/svg" xmlns:xlink="http://www.w3.org/1999/xlink" x="0px" y="0px"
	 viewBox="0 0 14 14" style="enable-background:new 0 0 14 14;" xml:space="preserve">
<g>
	<path d="M13.9,11.3l-3.3-6.8c-0.1-0.2-0.2-0.3-0.3-0.5L9.4,3.5c0,0-0.1-0.1-0.1-0.1C9.3,3,8.7,2,8.6,1.8l-0.2-1
		c0-0.2-0.2-0.4-0.4-0.4L7.3,0.1C7.1,0,6.8,0,6.5,0.1L5.9,0.4C5.7,0.5,5.5,0.6,5.5,0.8l-0.2,1C5.2,2,4.6,3,4.6,3.4
		c0,0-0.1,0-0.1,0.1L3.6,4.1C3.5,4.2,3.4,4.4,3.3,4.6l-3.2,6.8c-0.3,0.7,0.1,1.5,0.8,1.8c0,0,2.5,0.8,5.4,0.8C6.7,14,7,13.7,7,13.3
		c0-1.8,0.1-6.6,0.1-6.5l2.4,6.6c0.1,0.3,0.5,0.5,0.8,0.4l2.7-0.7C13.8,12.9,14.2,12,13.9,11.3z M6.5,3.8L6.4,3.7
		C6.2,3.6,6.1,3.5,6,3.3L6,3c0-0.1,0-0.1,0-0.2l0.1-1.1c0-0.2,0.2-0.4,0.4-0.5c0,0,0.3,0.1,0.5,0.1c0.2,0,0.5-0.1,0.5-0.1
		c0.2,0.1,0.3,0.2,0.4,0.5l0.1,1.1c0,0.1,0,0.1,0,0.2L7.8,3.3c0,0.2-0.2,0.3-0.3,0.4L7.3,3.8c0,0-0.1,0-0.1,0C7,3.8,6.8,3.8,6.5,3.8
		C6.6,3.8,6.6,3.8,6.5,3.8z"/>
</g>
</svg>
