<?xml version="1.0" encoding="utf-8"?>
<!-- Generator: Adobe Illustrator 25.2.1, SVG Export Plug-In . SVG Version: 6.00 Build 0)  -->
<svg version="1.1" id="Ebene_1" xmlns="http://www.w3.org/2000/svg" xmlns:xlink="http://www.w3.org/1999/xlink" x="0px" y="0px"
	 viewBox="0 0 14 14" style="enable-background:new 0 0 14 14;" xml:space="preserve">
<g>
	<path d="M14,4.1c-0.1-0.4-0.2-1.1-0.6-1.9c-0.1-0.2-0.4-0.3-0.6-0.2l-0.9,0.5c-0.2,0.1-0.5-0.1-0.4-0.4L12,1.1
		c0.1-0.2,0-0.4-0.2-0.5C11.3,0.3,10.6,0.1,9.8,0C9.5,0,9.2,0.1,9,0.4L7.4,3l0,0c-0.5,0-1,0.1-1.5,0.5L4.4,4.7L3.1,5.6L0.3,7.2
		C0,7.3-0.1,7.7,0.1,8c0.2,0.3,0.5,0.3,0.8,0.2c0,0,2.8-1.6,3-1.4C4.1,7,0.3,9.7,0.3,9.7C0,9.9-0.1,10.2,0.1,10.5
		c0.2,0.3,0.6,0.4,0.9,0.2c0,0,3.9-2.6,4.1-2.5c0.1,0.1-4.2,3.7-4.2,3.7c-0.2,0.2-0.3,0.6-0.1,0.8c0.2,0.3,0.6,0.4,0.9,0.1
		c0,0,4.5-3.5,4.6-3.3s-3,3.4-3,3.4C3,13.2,3,13.5,3.2,13.8c0.2,0.3,0.6,0.3,0.9,0l4.3-3.9C8.6,9.7,9,9.7,9.2,10
		c0,0,0.1,0.2,0.1,0.4L9,10.9C9,11,8.9,11,8.9,11.1l-0.9,1c-0.2,0.2-0.3,0.6-0.1,0.8c0.2,0.3,0.6,0.3,0.9,0.1l1.5-1.2
		c0.1-0.1,0.2-0.2,0.2-0.3l0.7-1.3c0.4-0.7,0.6-1.8,0.5-2.4c0,0,0,0,0,0c-0.1-0.9,1.3-2.3,1.9-2.9C13.9,4.7,14,4.4,14,4.1z"/>
</g>
</svg>
