<?xml version="1.0" encoding="utf-8"?>
<!-- Generator: Adobe Illustrator 25.2.1, SVG Export Plug-In . SVG Version: 6.00 Build 0)  -->
<svg version="1.1" id="Ebene_1" xmlns="http://www.w3.org/2000/svg" xmlns:xlink="http://www.w3.org/1999/xlink" x="0px" y="0px"
	 viewBox="0 0 14 14" style="enable-background:new 0 0 14 14;" xml:space="preserve">
<g>
	<path d="M3.6,1.8c0,0.4,0.2,0.7,0.6,0.7c0,0,2.6,0.4,2.8,0.4C7.1,3,7.2,3.1,7.2,3.3S7.1,3.6,7,3.6L1.8,3C1.5,3,1.1,3.2,1.1,3.6
		C1,4,1.3,4.4,1.7,4.4L6.9,5C7,5,7.2,5.1,7.2,5.3c0,0.2-0.1,0.3-0.3,0.3l-6.2,0C0.4,5.6,0,5.9,0,6.3C0,6.7,0.3,7,0.7,7h6.2
		c0.1,0,0.3,0,0.3,0.3S7,7.8,6.9,7.8L2.1,8.2c-0.4,0-0.7,0.3-0.7,0.7c0,0.4,0.4,0.7,0.8,0.7l6.7-0.4c0.4,0,0.7,0.2,0.8,0.7
		c0,0,0,0.2-0.2,0.4L7,11.7c-0.3,0.1-0.5,0.5-0.4,0.9C6.7,13,7.2,13.2,7.6,13l4.2-1.8c1.4-0.5,2.3-1.4,2.3-2.9v-4
		c0-1.4-1.1-2.6-2.6-2.6H9.1L7.3,1.6L4.5,1.1C4.1,1,3.7,1.3,3.6,1.8z"/>
</g>
</svg>
