<?xml version="1.0" encoding="utf-8"?>
<!-- Generator: Adobe Illustrator 25.2.1, SVG Export Plug-In . SVG Version: 6.00 Build 0)  -->
<svg version="1.1" id="Ebene_1" xmlns="http://www.w3.org/2000/svg" xmlns:xlink="http://www.w3.org/1999/xlink" x="0px" y="0px"
	 viewBox="0 0 14 14" style="enable-background:new 0 0 14 14;" xml:space="preserve">
<g>
	<path d="M3.6,12.2c0-0.4,0.2-0.7,0.6-0.7c0,0,2.6-0.4,2.8-0.4s0.2-0.1,0.2-0.3c0-0.2-0.1-0.3-0.2-0.3L1.8,11
		c-0.4,0-0.7-0.2-0.8-0.6C1,10,1.3,9.6,1.7,9.6L6.9,9C7,9,7.2,8.9,7.2,8.7c0-0.2-0.1-0.3-0.3-0.3l-6.2,0C0.4,8.4,0,8.1,0,7.7
		C0,7.3,0.3,7,0.7,7h6.2c0.1,0,0.3,0,0.3-0.3S7,6.2,6.9,6.2L2.1,5.8c-0.4,0-0.7-0.3-0.7-0.7c0-0.4,0.4-0.7,0.8-0.7l6.7,0.4
		c0.4,0,0.7-0.2,0.8-0.7c0,0,0-0.2-0.2-0.4L7,2.3C6.7,2.1,6.5,1.8,6.6,1.4C6.7,1,7.2,0.8,7.6,1l4.2,1.8C13.1,3.3,14,4.2,14,5.7v4
		c0,1.4-1.1,2.6-2.6,2.6H9.1l-1.8,0.1l-2.9,0.5C4.1,13,3.7,12.7,3.6,12.2z"/>
</g>
</svg>
