<?xml version="1.0" encoding="utf-8"?>
<!-- Generator: Adobe Illustrator 25.2.1, SVG Export Plug-In . SVG Version: 6.00 Build 0)  -->
<svg version="1.1" id="Ebene_1" xmlns="http://www.w3.org/2000/svg" xmlns:xlink="http://www.w3.org/1999/xlink" x="0px" y="0px"
	 viewBox="0 0 14 14" style="enable-background:new 0 0 14 14;" xml:space="preserve">
<path d="M13,5.5c0-1.5-1-3-2.2-4.1c-2-1.9-5.2-2-7.3-0.1c-1.2,1.1-2.3,2.4-2.3,4c0,2.5-0.2,4.5-0.4,5.5c-0.1,0.4,0.1,0.9,0.5,1.1
	l3.1,1.9c0.8,0.4,1.7-0.2,1.7-1L6.1,7c0-0.1-0.1-0.3-0.2-0.3L3.4,5.8c-0.1,0-0.2-0.2-0.2-0.3l0-0.4c0-0.2,0.2-0.3,0.3-0.3l7.2,0.1
	c0.2,0,0.3,0.2,0.3,0.3l0,0.4c0,0.1-0.1,0.3-0.2,0.3L8.3,6.8c-0.1,0-0.2,0.2-0.2,0.3L8,12.8c0,0.8,0.9,1.4,1.6,1.1l3.1-1.8
	c0.4-0.2,0.6-0.6,0.5-1.1C13,10,13,8.1,13,5.5L13,5.5z"/>
</svg>
