<?xml version="1.0" encoding="utf-8"?>
<!-- Generator: Adobe Illustrator 25.2.1, SVG Export Plug-In . SVG Version: 6.00 Build 0)  -->
<svg version="1.1" id="Ebene_1" xmlns="http://www.w3.org/2000/svg" xmlns:xlink="http://www.w3.org/1999/xlink" x="0px" y="0px"
	 viewBox="0 0 14 14" style="enable-background:new 0 0 14 14;" xml:space="preserve">
<g>
	<path d="M5,9.2c-1.1,1.1-1.1,2.9,0,4s2.9,1.1,4,0c1.1-1.1,1.1-2.9,0-4S6.1,8.1,5,9.2z M7.9,11.2c-0.5,0.5-1.3,0.5-1.8,0
		s-0.5-1.3,0-1.8C6.6,9,7.4,9,7.9,9.4C8.4,9.9,8.4,10.7,7.9,11.2z"/>
	<path d="M12.9,0c-0.1,0-0.3,0.1-0.3,0.3C12.5,3.2,10,5.6,7,5.6S1.5,3.2,1.4,0.3C1.4,0.1,1.3,0,1.1,0H0.3C0.1,0,0,0.1,0,0.3
		C0.2,4,3.2,7,7,7c3.8,0,6.8-3,7-6.7C14,0.1,13.9,0,13.7,0H12.9z"/>
</g>
</svg>
