<?xml version="1.0" encoding="utf-8"?>
<!-- Generator: Adobe Illustrator 25.2.1, SVG Export Plug-In . SVG Version: 6.00 Build 0)  -->
<svg version="1.1" id="Ebene_1" xmlns="http://www.w3.org/2000/svg" xmlns:xlink="http://www.w3.org/1999/xlink" x="0px" y="0px"
	 viewBox="0 0 14 14" style="enable-background:new 0 0 14 14;" xml:space="preserve">
<g>
	<path d="M9.3,6.6c0.4,1.2,0.2,2.7-0.8,3.6c-0.6,0.6-1.5,1-2.4,1s-1.7-0.4-2.4-1c-1.3-1.3-1.3-3.5,0-4.9c0.6-0.6,1.5-1,2.4-1
		c0.4,0,0.8,0.1,1.2,0.2V3.2C7,3.1,6.6,3,6.2,3C5,3,3.7,3.5,2.8,4.4c-1.9,1.9-1.9,5,0,6.8c0.9,0.9,2.2,1.4,3.4,1.4
		c1.2,0,2.4-0.5,3.4-1.4c1.2-1.3,1.7-3,1.2-4.6H9.3z"/>
	<polygon points="12.2,5.6 12.6,3.3 10.7,1.3 8.4,1.7 8.4,1.7 8.4,5.6 12.2,5.6 	"/>
</g>
</svg>
